<svg xmlns="http://www.w3.org/2000/svg" xmlns:xlink="http://www.w3.org/1999/xlink" width="282" zoomAndPan="magnify" viewBox="0 0 211.5 107.999999" height="144" preserveAspectRatio="xMidYMid meet" version="1.0"><defs><g/><clipPath id="29d5c8a1e4"><path d="M 0 0.128906 L 211 0.128906 L 211 107.871094 L 0 107.871094 Z M 0 0.128906 " clip-rule="nonzero"/></clipPath><clipPath id="7ec6304c15"><path d="M 0 0.128906 L 211 0.128906 L 211 107.53125 L 0 107.53125 Z M 0 0.128906 " clip-rule="nonzero"/></clipPath><clipPath id="2984a35b86"><path d="M 17.210938 0.128906 L 193.519531 0.128906 C 203.023438 0.128906 210.726562 7.832031 210.726562 17.335938 L 210.726562 90.320312 C 210.726562 99.824219 203.023438 107.53125 193.519531 107.53125 L 17.210938 107.53125 C 7.703125 107.53125 0 99.824219 0 90.320312 L 0 17.335938 C 0 7.832031 7.703125 0.128906 17.210938 0.128906 Z M 17.210938 0.128906 " clip-rule="nonzero"/></clipPath><clipPath id="9a97b89259"><path d="M 0.00390625 0.128906 L 211 0.128906 L 211 107.871094 L 0.00390625 107.871094 Z M 0.00390625 0.128906 " clip-rule="nonzero"/></clipPath><clipPath id="4cc81ad570"><path d="M 17.210938 0.128906 L 193.507812 0.128906 C 203.011719 0.128906 210.714844 7.832031 210.714844 17.335938 L 210.714844 90.3125 C 210.714844 99.816406 203.011719 107.523438 193.507812 107.523438 L 17.210938 107.523438 C 7.707031 107.523438 0.00390625 99.816406 0.00390625 90.3125 L 0.00390625 17.335938 C 0.00390625 7.832031 7.707031 0.128906 17.210938 0.128906 Z M 17.210938 0.128906 " clip-rule="nonzero"/></clipPath><clipPath id="72f07f2b17"><path d="M 12.472656 10.777344 L 198.40625 10.777344 L 198.40625 70.878906 L 12.472656 70.878906 Z M 12.472656 10.777344 " clip-rule="nonzero"/></clipPath><clipPath id="072e17c539"><path d="M 25.941406 10.777344 L 184.789062 10.777344 C 192.226562 10.777344 198.257812 16.804688 198.257812 24.246094 L 198.257812 57.410156 C 198.257812 64.847656 192.226562 70.878906 184.789062 70.878906 L 25.941406 70.878906 C 18.503906 70.878906 12.472656 64.847656 12.472656 57.410156 L 12.472656 24.246094 C 12.472656 16.804688 18.503906 10.777344 25.941406 10.777344 Z M 25.941406 10.777344 " clip-rule="nonzero"/></clipPath><clipPath id="3b73855783"><path d="M 31.515625 26.375 L 65 26.375 L 65 55 L 31.515625 55 Z M 31.515625 26.375 " clip-rule="nonzero"/></clipPath></defs><g clip-path="url(#29d5c8a1e4)"><path fill="#ffffff" d="M 0 0.128906 L 211 0.128906 L 211 107.871094 L 0 107.871094 Z M 0 0.128906 " fill-opacity="1" fill-rule="nonzero"/></g><g clip-path="url(#7ec6304c15)"><g clip-path="url(#2984a35b86)"><path fill="#0a47b6" d="M 0 0.128906 L 210.609375 0.128906 L 210.609375 107.53125 L 0 107.53125 Z M 0 0.128906 " fill-opacity="1" fill-rule="nonzero"/></g></g><g clip-path="url(#9a97b89259)"><g clip-path="url(#4cc81ad570)"><path stroke-linecap="butt" transform="matrix(0.748231, 0, 0, 0.748231, 0.00411749, 0.12736)" fill="none" stroke-linejoin="miter" d="M 22.996667 0.00206689 L 258.614895 0.00206689 C 271.316728 0.00206689 281.611844 10.297182 281.611844 22.999016 L 281.611844 120.531138 C 281.611844 133.232971 271.316728 143.533307 258.614895 143.533307 L 22.996667 143.533307 C 10.294833 143.533307 -0.000282317 133.232971 -0.000282317 120.531138 L -0.000282317 22.999016 C -0.000282317 10.297182 10.294833 0.00206689 22.996667 0.00206689 Z M 22.996667 0.00206689 " stroke="#ffffff" stroke-width="10" stroke-opacity="1" stroke-miterlimit="4"/></g></g><g clip-path="url(#72f07f2b17)"><g clip-path="url(#072e17c539)"><path fill="#ffffff" d="M 12.472656 10.777344 L 198.171875 10.777344 L 198.171875 70.878906 L 12.472656 70.878906 Z M 12.472656 10.777344 " fill-opacity="1" fill-rule="nonzero"/></g></g><g fill="#0a47b6" fill-opacity="1"><g transform="translate(75.222682, 55.79138)"><g><path d="M 2.46875 -26.078125 L 11 -26.078125 L 11 -15.6875 L 19.0625 -15.6875 L 19.0625 -26.078125 L 27.640625 -26.078125 L 27.640625 0 L 19.0625 0 L 19.0625 -10.234375 L 11 -10.234375 L 11 0 L 2.46875 0 Z M 2.46875 -26.078125 "/></g></g></g><g fill="#0a47b6" fill-opacity="1"><g transform="translate(105.317371, 55.79138)"><g><path d="M 2.46875 -26.078125 L 10.078125 -26.078125 L 20.46875 -12.015625 L 20.46875 -26.078125 L 27.25 -26.078125 L 27.25 0 L 19.671875 0 L 9.21875 -13.578125 L 9.21875 0 L 2.46875 0 Z M 2.46875 -26.078125 "/></g></g></g><g fill="#0a47b6" fill-opacity="1"><g transform="translate(135.033036, 55.79138)"><g><path d="M 10.53125 0.609375 C 6.96875 0.609375 3.960938 -0.046875 1.515625 -1.359375 L 3.40625 -7.234375 C 6.007812 -6.304688 8.335938 -5.84375 10.390625 -5.84375 C 11.492188 -5.84375 12.304688 -5.972656 12.828125 -6.234375 C 13.347656 -6.503906 13.609375 -6.898438 13.609375 -7.421875 C 13.609375 -7.773438 13.46875 -8.082031 13.1875 -8.34375 C 12.914062 -8.613281 12.359375 -8.910156 11.515625 -9.234375 C 10.679688 -9.566406 9.429688 -9.976562 7.765625 -10.46875 C 5.722656 -11.070312 4.128906 -12.0625 2.984375 -13.4375 C 1.847656 -14.8125 1.28125 -16.394531 1.28125 -18.1875 C 1.28125 -20.96875 2.195312 -23.070312 4.03125 -24.5 C 5.863281 -25.925781 8.335938 -26.640625 11.453125 -26.640625 C 13.066406 -26.640625 14.65625 -26.46875 16.21875 -26.125 C 17.789062 -25.789062 19.179688 -25.296875 20.390625 -24.640625 L 18.34375 -18.921875 C 16.925781 -19.398438 15.691406 -19.742188 14.640625 -19.953125 C 13.597656 -20.171875 12.582031 -20.28125 11.59375 -20.28125 C 9.925781 -20.28125 9.09375 -19.828125 9.09375 -18.921875 C 9.09375 -18.460938 9.363281 -18.070312 9.90625 -17.75 C 10.457031 -17.4375 11.578125 -17.039062 13.265625 -16.5625 C 15.921875 -15.851562 17.929688 -14.769531 19.296875 -13.3125 C 20.660156 -11.863281 21.34375 -10.128906 21.34375 -8.109375 C 21.34375 -5.304688 20.429688 -3.148438 18.609375 -1.640625 C 16.785156 -0.140625 14.09375 0.609375 10.53125 0.609375 Z M 10.53125 0.609375 "/></g></g></g><g fill="#0a47b6" fill-opacity="1"><g transform="translate(157.471395, 55.79138)"><g><path d="M 14.75 0.609375 C 12.21875 0.609375 9.921875 0.0078125 7.859375 -1.1875 C 5.804688 -2.394531 4.175781 -4.039062 2.96875 -6.125 C 1.769531 -8.207031 1.171875 -10.515625 1.171875 -13.046875 C 1.171875 -15.617188 1.75 -17.941406 2.90625 -20.015625 C 4.070312 -22.085938 5.664062 -23.707031 7.6875 -24.875 C 9.71875 -26.050781 11.992188 -26.640625 14.515625 -26.640625 C 15.878906 -26.640625 17.21875 -26.472656 18.53125 -26.140625 C 19.84375 -25.816406 20.96875 -25.351562 21.90625 -24.75 L 20.890625 -18.875 C 19.066406 -19.5625 17.421875 -19.90625 15.953125 -19.90625 C 13.929688 -19.90625 12.378906 -19.316406 11.296875 -18.140625 C 10.210938 -16.960938 9.671875 -15.273438 9.671875 -13.078125 C 9.671875 -10.929688 10.242188 -9.253906 11.390625 -8.046875 C 12.535156 -6.847656 14.132812 -6.25 16.1875 -6.25 C 16.96875 -6.25 17.695312 -6.320312 18.375 -6.46875 C 19.0625 -6.625 19.898438 -6.90625 20.890625 -7.3125 L 21.953125 -1.328125 C 19.753906 -0.0351562 17.351562 0.609375 14.75 0.609375 Z M 14.75 0.609375 "/></g></g></g><g clip-path="url(#3b73855783)"><path fill="#0a47b6" d="M 60.667969 29.753906 L 39.546875 29.753906 C 39.496094 29.53125 39.34375 28.871094 39.34375 28.871094 C 39.050781 27.597656 37.933594 26.710938 36.625 26.710938 L 33.121094 26.710938 C 32.234375 26.710938 31.515625 27.429688 31.515625 28.3125 C 31.515625 29.199219 32.234375 29.917969 33.121094 29.917969 L 36.292969 29.917969 C 36.398438 30.371094 40.257812 47.132812 40.257812 47.132812 L 39.34375 49.554688 C 38.882812 50.777344 39.054688 52.148438 39.796875 53.222656 C 40.539062 54.300781 41.765625 54.941406 43.070312 54.941406 L 57.761719 54.941406 C 58.648438 54.941406 59.367188 54.222656 59.367188 53.335938 C 59.367188 52.453125 58.648438 51.734375 57.761719 51.734375 L 43.070312 51.734375 C 42.71875 51.734375 42.519531 51.523438 42.433594 51.398438 C 42.347656 51.277344 42.21875 51.015625 42.34375 50.683594 L 43.039062 48.847656 L 58.09375 48.847656 C 59.957031 48.847656 61.554688 47.578125 61.972656 45.761719 L 64.546875 34.632812 C 64.824219 33.441406 64.542969 32.210938 63.785156 31.257812 C 63.023438 30.300781 61.890625 29.753906 60.667969 29.753906 Z M 61.421875 33.910156 L 58.847656 45.039062 C 58.765625 45.394531 58.457031 45.640625 58.09375 45.640625 L 43.207031 45.640625 C 42.625 43.113281 41.273438 37.246094 40.285156 32.960938 L 60.667969 32.960938 C 60.992188 32.960938 61.1875 33.144531 61.273438 33.253906 C 61.363281 33.363281 61.496094 33.59375 61.421875 33.910156 Z M 61.421875 33.910156 " fill-opacity="1" fill-rule="nonzero"/></g><path fill="#0a47b6" d="M 45.617188 35.824219 C 44.730469 35.824219 44.011719 36.539062 44.011719 37.425781 L 44.011719 41.175781 C 44.011719 42.058594 44.730469 42.777344 45.617188 42.777344 C 46.5 42.777344 47.21875 42.058594 47.21875 41.175781 L 47.21875 37.425781 C 47.21875 36.539062 46.5 35.824219 45.617188 35.824219 Z M 45.617188 35.824219 " fill-opacity="1" fill-rule="nonzero"/><path fill="#0a47b6" d="M 50.652344 35.824219 C 49.765625 35.824219 49.046875 36.539062 49.046875 37.425781 L 49.046875 41.175781 C 49.046875 42.058594 49.765625 42.777344 50.652344 42.777344 C 51.539062 42.777344 52.253906 42.058594 52.253906 41.175781 L 52.253906 37.425781 C 52.253906 36.539062 51.539062 35.824219 50.652344 35.824219 Z M 50.652344 35.824219 " fill-opacity="1" fill-rule="nonzero"/><path fill="#0a47b6" d="M 55.6875 35.824219 C 54.800781 35.824219 54.085938 36.539062 54.085938 37.425781 L 54.085938 41.175781 C 54.085938 42.058594 54.800781 42.777344 55.6875 42.777344 C 56.574219 42.777344 57.289062 42.058594 57.289062 41.175781 L 57.289062 37.425781 C 57.289062 36.539062 56.574219 35.824219 55.6875 35.824219 Z M 55.6875 35.824219 " fill-opacity="1" fill-rule="nonzero"/><g fill="#ffffff" fill-opacity="1"><g transform="translate(33.994311, 95.270643)"><g><path d="M 4.578125 -12.765625 L 7.859375 -3.5 L 11.109375 -12.765625 L 14.5625 -12.765625 L 14.5625 0 L 11.9375 0 L 11.9375 -3.484375 L 12.1875 -9.515625 L 8.75 0 L 6.9375 0 L 3.5 -9.5 L 3.765625 -3.484375 L 3.765625 0 L 1.140625 0 L 1.140625 -12.765625 Z M 4.578125 -12.765625 "/></g></g></g><g fill="#ffffff" fill-opacity="1"><g transform="translate(55.848248, 95.270643)"><g><path d="M 3.9375 0 L 1.3125 0 L 1.3125 -12.765625 L 3.9375 -12.765625 Z M 3.9375 0 "/></g></g></g><g fill="#ffffff" fill-opacity="1"><g transform="translate(67.206491, 95.270643)"><g><path d="M 11.515625 0 L 8.890625 0 L 3.765625 -8.390625 L 3.765625 0 L 1.140625 0 L 1.140625 -12.765625 L 3.765625 -12.765625 L 8.890625 -4.34375 L 8.890625 -12.765625 L 11.515625 -12.765625 Z M 11.515625 0 "/></g></g></g><g fill="#ffffff" fill-opacity="1"><g transform="translate(86.009045, 95.270643)"><g><path d="M 3.9375 0 L 1.3125 0 L 1.3125 -12.765625 L 3.9375 -12.765625 Z M 3.9375 0 "/></g></g></g><g fill="#ffffff" fill-opacity="1"><g transform="translate(97.367291, 95.270643)"><g/></g></g><g fill="#ffffff" fill-opacity="1"><g transform="translate(107.962691, 95.270643)"><g><path d="M 4.578125 -12.765625 L 7.859375 -3.5 L 11.109375 -12.765625 L 14.5625 -12.765625 L 14.5625 0 L 11.9375 0 L 11.9375 -3.484375 L 12.1875 -9.515625 L 8.75 0 L 6.9375 0 L 3.5 -9.5 L 3.765625 -3.484375 L 3.765625 0 L 1.140625 0 L 1.140625 -12.765625 Z M 4.578125 -12.765625 "/></g></g></g><g fill="#ffffff" fill-opacity="1"><g transform="translate(129.816632, 95.270643)"><g><path d="M 8.34375 -2.625 L 3.734375 -2.625 L 2.859375 0 L 0.0625 0 L 4.8125 -12.765625 L 7.25 -12.765625 L 12.03125 0 L 9.234375 0 Z M 4.4375 -4.765625 L 7.640625 -4.765625 L 6.03125 -9.53125 Z M 4.4375 -4.765625 "/></g></g></g><g fill="#ffffff" fill-opacity="1"><g transform="translate(148.022945, 95.270643)"><g><path d="M 5.859375 -4.671875 L 3.765625 -4.671875 L 3.765625 0 L 1.140625 0 L 1.140625 -12.765625 L 5.875 -12.765625 C 7.382812 -12.765625 8.546875 -12.425781 9.359375 -11.75 C 10.179688 -11.082031 10.59375 -10.132812 10.59375 -8.90625 C 10.59375 -8.03125 10.40625 -7.300781 10.03125 -6.71875 C 9.65625 -6.144531 9.082031 -5.6875 8.3125 -5.34375 L 11.078125 -0.125 L 11.078125 0 L 8.25 0 Z M 3.765625 -6.796875 L 5.890625 -6.796875 C 6.546875 -6.796875 7.054688 -6.960938 7.421875 -7.296875 C 7.785156 -7.640625 7.96875 -8.109375 7.96875 -8.703125 C 7.96875 -9.296875 7.796875 -9.765625 7.453125 -10.109375 C 7.109375 -10.460938 6.582031 -10.640625 5.875 -10.640625 L 3.765625 -10.640625 Z M 3.765625 -6.796875 "/></g></g></g><g fill="#ffffff" fill-opacity="1"><g transform="translate(165.606708, 95.270643)"><g><path d="M 10.75 -10.640625 L 6.84375 -10.640625 L 6.84375 0 L 4.203125 0 L 4.203125 -10.640625 L 0.34375 -10.640625 L 0.34375 -12.765625 L 10.75 -12.765625 Z M 10.75 -10.640625 "/></g></g></g></svg>